<svg width="20" height="19" xmlns="http://www.w3.org/2000/svg">
 <title/>
 <desc/>

 <g>
  <title>background</title>
  <rect fill="none" id="canvas_background" height="402" width="582" y="-1" x="-1"/>
 </g>
 <g>
  <title>Layer 1</title>
  <path fill="#cbbc93" id="Shape" d="m14.5,0c-1.7,0 -3.4,0.8 -4.5,2.1c-1.1,-1.3 -2.8,-2.1 -4.5,-2.1c-3.1,0 -5.5,2.4 -5.5,5.5c0,3.8 3.4,6.9 8.6,11.5l1.4,1.3l1.4,-1.3c5.1,-4.7 8.6,-7.8 8.6,-11.5c0,-3.1 -2.4,-5.5 -5.5,-5.5l0,0zm-4.4,15.6l-0.1,0l-0.1,-0.1c-4.8,-4.3 -7.9,-7.1 -7.9,-10c0,-2 1.5,-3.5 3.5,-3.5c1.5,0 3,1 3.6,2.4l1.9,0c0.5,-1.4 2,-2.4 3.5,-2.4c2,0 3.5,1.5 3.5,3.5c0,2.9 -3.1,5.7 -7.9,10.1l0,0z"/>
 </g>
</svg>